<svg width="550" height="550" xmlns="http://www.w3.org/2000/svg">
 <g>
  <title>Double Stick</title>
 <defs>
 <g id="stick">
  <g id="rotation_group" transform="rotate(10 281.125 248.131)">
   <ellipse id="bottom_end" fill="SaddleBrown" cx="274.37498" cy="510.61867" rx="15.25003" ry="6.5"/>
   <rect id="shaft" fill="SaddleBrown" x="258.87506" y="39.63096" width="30.74987" height="472"/>
   <ellipse id="top_end" fill="Sienna" cx="274.37498" cy="39.38138" rx="15.25003" ry="6.5"/>
   <path id="tape_01" fill="SandyBrown" fill-opacity="0.36" d="m259.7916,443.63096l30,-19.33333l0,31.33333l-30,19.33333l0,-31.33333z"/>
   <path id="tape_02" fill="SandyBrown" fill-opacity="0.36" d="m259.7916,423.63096l30.66667,-19.33333l0,31.33333l-30.66667,19.33333l0,-31.33333z"/>
   <path id="tape_03" fill="SandyBrown" fill-opacity="0.36" d="m259.7916,462.96429l30,-19.33333l0,31.33333l-30,19.33333l0,-31.33333z"/>
   <path id="tape_04" fill="SandyBrown" fill-opacity="0.36" d="m259.7916,384.29763l30.66667,-19.33333l0,31.33333l-30.66667,19.33333l0,-31.33333z"/>
   <path id="tape_05" fill="SandyBrown" fill-opacity="0.36" d="m259.7916,364.29763l31.33333,-19.33333l0,31.33333l-31.33333,19.33333l0,-31.33333z"/>
   <path id="tape_06" fill="SandyBrown" fill-opacity="0.36" d="m260.45826,403.63096l30,-19.33333l0,31.33333l-30,19.33333l0,-31.33333z"/>
   <path id="tape_07" fill="SandyBrown" fill-opacity="0.36" d="m259.79159,144.9643l29.33334,-19.33333l0,31.33333l-29.33334,19.33333l0,-31.33333z"/>
   <path id="tape_08" fill="SandyBrown" fill-opacity="0.36" d="m260.45827,124.9643l29.33334,-19.33333l0,31.33333l-29.33334,19.33333l0,-31.33333z"/>
   <path id="tape_09" fill="SandyBrown" fill-opacity="0.36" d="m259.79159,164.29763l29.33334,-19.33333l0,31.33333l-29.33334,19.33333l0,-31.33333z"/>
   <path id="tape_10" fill="SandyBrown" fill-opacity="0.36" d="m259.7916,85.63097l30.00001,-19.33333l0,31.33333l-30.00001,19.33333l0,-31.33333z"/>
   <path id="tape_11" fill="SandyBrown" fill-opacity="0.36" d="m259.7916,65.63097l30.66667,-19.33333l0,31.33333l-30.66667,19.33333l0,-31.33333z"/>
   <path id="tape_12" fill="SandyBrown" fill-opacity="0.36" d="m259.7916,104.9643l30.00001,-19.33333l0,31.33333l-30.00001,19.33333l0,-31.33333z"/>
  </g>
 </g>
 </defs>
  <use href="#stick" x="-70.42729" y="0"/>
  <use href="#stick" x="79.57271" y="0"/>
 </g>
</svg>
